<svg width="16" height="17" viewBox="0 0 16 17" fill="none" xmlns="http://www.w3.org/2000/svg">
<g clip-path="url(#clip0_175_299)">
<path d="M0.968048 7.54072H12.3754C12.4091 7.54039 12.442 7.52988 12.4696 7.51054C12.4973 7.49121 12.5185 7.46396 12.5304 7.43238C12.5423 7.4008 12.5443 7.36637 12.5363 7.33359C12.5283 7.30081 12.5105 7.27123 12.4854 7.24872L6.72738 2.18205C6.54636 2.01138 6.43867 1.7771 6.427 1.52858C6.41534 1.28006 6.5006 1.03672 6.66484 0.84984C6.82907 0.662959 7.05944 0.547136 7.3074 0.52678C7.55536 0.506425 7.80153 0.583126 7.99405 0.74072L15.448 7.30005C15.6183 7.4502 15.7546 7.63486 15.848 7.84175C15.9414 8.04865 15.9897 8.27305 15.9897 8.50005C15.9897 8.72705 15.9414 8.95146 15.848 9.15835C15.7546 9.36525 15.6183 9.54991 15.448 9.70005L7.99538 16.2581C7.80271 16.4137 7.55736 16.4888 7.31059 16.4678C7.06383 16.4467 6.83474 16.3311 6.67121 16.1451C6.50768 15.9591 6.42235 15.7171 6.43307 15.4697C6.44379 15.2223 6.54971 14.9885 6.72871 14.8174L12.4867 9.75072C12.5119 9.72821 12.5296 9.69863 12.5376 9.66585C12.5457 9.63307 12.5436 9.59863 12.5317 9.56706C12.5198 9.53548 12.4986 9.50823 12.471 9.4889C12.4433 9.46956 12.4105 9.45904 12.3767 9.45872H0.968048C0.717907 9.45213 0.480227 9.34813 0.305635 9.16887C0.131045 8.98962 0.0333443 8.74928 0.0333443 8.49905C0.0333443 8.24883 0.131045 8.00849 0.305635 7.82923C0.480227 7.64998 0.717907 7.54598 0.968048 7.53939V7.54072Z" fill="#FFDD18"/>
</g>
<defs>
<clipPath id="clip0_175_299">
<rect width="16" height="16" fill="white" transform="matrix(-1 0 0 1 16 0.5)"/>
</clipPath>
</defs>
</svg>
