<svg width="14" height="14" viewBox="0 0 14 14" fill="none" xmlns="http://www.w3.org/2000/svg">
<g opacity="0.5" clip-path="url(#clip0_561_2332)">
<path d="M4.0833 0.890774C4.83949 0.909728 5.56169 1.20888 6.1098 1.73019L12.5265 8.14686C12.6702 8.29369 12.7885 8.46343 12.8765 8.64911C12.8927 8.68208 12.9207 8.70772 12.955 8.72092C12.9893 8.73411 13.0273 8.73388 13.0614 8.72027L13.3641 8.59952C13.5188 8.54689 13.657 8.45473 13.765 8.3322C13.873 8.20967 13.9471 8.06101 13.98 7.90099C14.0128 7.74097 14.0033 7.57514 13.9522 7.41996C13.9012 7.26478 13.8105 7.12565 13.689 7.01636L7.27238 0.599691C6.88828 0.2428 6.38875 0.0357817 5.8648 0.0163574H2.94813C2.72789 0.0164401 2.51222 0.0791744 2.3263 0.197235C2.14037 0.315297 1.99187 0.483812 1.89813 0.683107C1.88746 0.705207 1.8826 0.729667 1.88403 0.754168C1.88546 0.778669 1.89313 0.802399 1.9063 0.823107C1.91944 0.844028 1.93769 0.861266 1.95932 0.873204C1.98095 0.885142 2.00526 0.891388 2.02997 0.891357L4.0833 0.890774Z" fill="white"/>
<path d="M11.9082 8.76575L5.4915 2.34908C5.10228 1.99988 4.60547 1.79408 4.08333 1.76575H1.16667C0.857247 1.76575 0.560501 1.88866 0.341709 2.10746C0.122916 2.32625 0 2.62299 0 2.93241L0 5.84908C0.0284234 6.3712 0.234213 6.86798 0.583333 7.25725L7 13.6739C7.09115 13.7693 7.20031 13.8457 7.32116 13.8987C7.44201 13.9516 7.57216 13.9801 7.70408 13.9825C7.76482 13.9826 7.8254 13.9765 7.88492 13.9644C8.04412 13.929 8.19178 13.8539 8.31417 13.7461C8.43655 13.6383 8.52969 13.5013 8.58492 13.3478L9.39575 11.3213C9.41042 11.2847 9.43235 11.2515 9.46023 11.2236C9.4881 11.1958 9.52133 11.1738 9.55792 11.1592L11.585 10.3483C11.7396 10.2957 11.8778 10.2035 11.9859 10.081C12.0939 9.95847 12.168 9.80982 12.2009 9.6498C12.2337 9.48978 12.2241 9.32395 12.1731 9.16877C12.1221 9.01359 12.0313 8.87445 11.9099 8.76516L11.9082 8.76575ZM3.20833 5.84908C3.03527 5.84908 2.8661 5.79776 2.72221 5.70162C2.57832 5.60547 2.46617 5.46881 2.39994 5.30893C2.33371 5.14904 2.31638 4.97311 2.35015 4.80338C2.38391 4.63364 2.46724 4.47773 2.58961 4.35536C2.71199 4.23299 2.8679 4.14966 3.03763 4.11589C3.20736 4.08213 3.3833 4.09946 3.54318 4.16569C3.70307 4.23191 3.83972 4.34406 3.93587 4.48796C4.03202 4.63185 4.08333 4.80102 4.08333 4.97408C4.08333 5.20615 3.99115 5.4287 3.82705 5.5928C3.66296 5.75689 3.4404 5.84908 3.20833 5.84908Z" fill="white"/>
</g>
<defs>
<clipPath id="clip0_561_2332">
<rect width="14" height="14" fill="white"/>
</clipPath>
</defs>
</svg>
