<svg width="14" height="14" viewBox="0 0 14 14" fill="none" xmlns="http://www.w3.org/2000/svg">
<g opacity="0.5" clip-path="url(#clip0_561_2348)">
<path d="M13.3362 0.391458C13.1178 0.265809 12.8681 0.205252 12.6164 0.216932C12.3647 0.228611 12.1216 0.312041 11.9158 0.457374C11.8872 0.424909 11.8547 0.396107 11.819 0.371624L11.6276 0.261374C11.2907 0.0673694 10.8905 0.0150421 10.5151 0.115887C10.1396 0.216732 9.81946 0.462502 9.62506 0.799208L7.97831 3.65287C7.90095 3.78693 7.88002 3.94622 7.92011 4.09571C7.96021 4.2452 8.05804 4.37264 8.1921 4.45C8.32616 4.52735 8.48545 4.54829 8.63494 4.50819C8.78443 4.4681 8.91187 4.37026 8.98922 4.23621L10.6354 1.38196C10.6752 1.31346 10.7404 1.26344 10.8169 1.2428C10.8933 1.22215 10.9749 1.23254 11.0437 1.27171L11.2345 1.38254L7.61781 7.65687C7.53012 7.80896 7.50642 7.98965 7.55193 8.1592C7.59743 8.32876 7.70842 8.4733 7.86048 8.56104L9.00789 9.22312C9.15998 9.31081 9.34067 9.33451 9.51022 9.289C9.67978 9.2435 9.82432 9.13251 9.91206 8.98046L13.8251 2.20096C13.9119 2.05009 13.9682 1.88357 13.9907 1.71092C14.0131 1.53828 14.0013 1.36291 13.9559 1.19484C13.9105 1.02676 13.8324 0.869297 13.7261 0.731444C13.6197 0.593591 13.4873 0.478058 13.3362 0.391458Z" fill="white"/>
<path d="M9.09 9.95456L7.29158 8.91739C7.24901 8.89285 7.20092 8.87946 7.15178 8.87848C7.10265 8.87749 7.05406 8.88893 7.01054 8.91174C6.96701 8.93456 6.92995 8.968 6.9028 9.00896C6.87565 9.04992 6.8593 9.09708 6.85525 9.14606L6.6505 11.5762C6.64572 11.6315 6.65679 11.6869 6.68242 11.7361C6.70804 11.7853 6.74715 11.8262 6.79517 11.8539C6.84331 11.8809 6.89805 11.8939 6.95321 11.8915C7.00836 11.889 7.06172 11.8711 7.10725 11.8399L9.10866 10.4463C9.14891 10.4182 9.18142 10.3804 9.20319 10.3365C9.22495 10.2925 9.23526 10.2437 9.23317 10.1947C9.23107 10.1456 9.21664 10.0979 9.19121 10.056C9.16577 10.014 9.13016 9.97911 9.08766 9.95456H9.09Z" fill="white"/>
<path d="M5.69211 12.7278C4.99276 12.7919 4.28993 12.65 3.67028 12.3195C3.23915 12.1072 2.77234 11.9769 2.29361 11.9351C1.50957 11.9333 0.752845 12.2229 0.170276 12.7477C0.115772 12.8016 0.0724236 12.8657 0.0427064 12.9364C0.0129891 13.0071 -0.00251523 13.0829 -0.00292149 13.1596C-0.00332775 13.2363 0.0113721 13.3123 0.0403386 13.3833C0.0693052 13.4543 0.111971 13.5189 0.165901 13.5734C0.274816 13.6834 0.422999 13.7457 0.577849 13.7466C0.654523 13.747 0.730526 13.7323 0.801519 13.7033C0.872513 13.6743 0.937105 13.6317 0.991609 13.5777C1.35414 13.2671 1.81683 13.0983 2.29419 13.1023C2.61938 13.156 2.93511 13.2564 3.23161 13.4004C3.88576 13.712 4.59422 13.8935 5.31761 13.9347C5.53028 13.9351 5.74234 13.9121 5.94994 13.8659C6.02467 13.849 6.09535 13.8176 6.15794 13.7735C6.22053 13.7293 6.2738 13.6732 6.31473 13.6085C6.35565 13.5437 6.38342 13.4715 6.39645 13.3961C6.40947 13.3206 6.4075 13.2433 6.39065 13.1685C6.3738 13.0938 6.34239 13.0231 6.29822 12.9605C6.25406 12.8979 6.19799 12.8447 6.13324 12.8037C6.06848 12.7628 5.9963 12.735 5.92081 12.722C5.84532 12.709 5.768 12.711 5.69328 12.7278H5.69211Z" fill="white"/>
</g>
<defs>
<clipPath id="clip0_561_2348">
<rect width="14" height="14" fill="white"/>
</clipPath>
</defs>
</svg>
