<svg width="14" height="14" viewBox="0 0 14 14" fill="none" xmlns="http://www.w3.org/2000/svg">
<g opacity="0.5" clip-path="url(#clip0_175_354)">
<path d="M7 0C5.61553 0 4.26216 0.410543 3.11101 1.17971C1.95987 1.94888 1.06266 3.04213 0.532846 4.32122C0.003033 5.6003 -0.13559 7.00776 0.134506 8.36563C0.404603 9.7235 1.07129 10.9708 2.05026 11.9497C3.02922 12.9287 4.2765 13.5954 5.63437 13.8655C6.99224 14.1356 8.3997 13.997 9.67879 13.4672C10.9579 12.9373 12.0511 12.0401 12.8203 10.889C13.5895 9.73785 14 8.38447 14 7C13.9978 5.14415 13.2597 3.36493 11.9474 2.05264C10.6351 0.740353 8.85586 0.00216138 7 0V0ZM7 12.8333C5.84628 12.8333 4.71846 12.4912 3.75918 11.8502C2.79989 11.2093 2.05222 10.2982 1.61071 9.23232C1.16919 8.16642 1.05368 6.99353 1.27876 5.86197C1.50384 4.73042 2.05941 3.69102 2.87521 2.87521C3.69102 2.0594 4.73042 1.50383 5.86198 1.27875C6.99353 1.05367 8.16642 1.16919 9.23232 1.6107C10.2982 2.05221 11.2093 2.79989 11.8502 3.75917C12.4912 4.71846 12.8333 5.84628 12.8333 7C12.8316 8.54657 12.2165 10.0293 11.1229 11.1229C10.0293 12.2165 8.54658 12.8316 7 12.8333Z" fill="white"/>
<path d="M9.99484 9.22254L7.29167 6.74396V3.79171C7.29167 3.637 7.23021 3.48862 7.12081 3.37923C7.01142 3.26983 6.86304 3.20837 6.70833 3.20837C6.55362 3.20837 6.40525 3.26983 6.29585 3.37923C6.18646 3.48862 6.125 3.637 6.125 3.79171V7.00004C6.12491 7.08098 6.14167 7.16106 6.17421 7.23518C6.20675 7.30929 6.25435 7.37582 6.314 7.43054L9.20675 10.0818C9.32145 10.1849 9.47203 10.239 9.62614 10.2323C9.78026 10.2257 9.92562 10.1589 10.031 10.0462C10.1353 9.93214 10.1901 9.78133 10.1834 9.62689C10.1766 9.47245 10.1088 9.32702 9.99484 9.22254Z" fill="white"/>
</g>
<defs>
<clipPath id="clip0_175_354">
<rect width="14" height="14" fill="white"/>
</clipPath>
</defs>
</svg>
