<svg width="14" height="14" viewBox="0 0 14 14" fill="none" xmlns="http://www.w3.org/2000/svg">
<g opacity="0.5" clip-path="url(#clip0_561_2342)">
<path d="M6.43197 2.91728C7.23738 2.91728 7.8903 2.26436 7.8903 1.45894C7.8903 0.653528 7.23738 0.000610352 6.43197 0.000610352C5.62655 0.000610352 4.97363 0.653528 4.97363 1.45894C4.97363 2.26436 5.62655 2.91728 6.43197 2.91728Z" fill="white"/>
<path d="M11.948 11.2526L12.298 10.5695C12.3688 10.4318 12.3821 10.2716 12.3348 10.1241C12.2876 9.97665 12.1837 9.85399 12.046 9.78314C11.9083 9.71228 11.7481 9.69902 11.6006 9.74628C11.4532 9.79354 11.3305 9.89745 11.2596 10.0351C11.2596 10.0351 10.8851 10.7544 10.8682 10.7666C10.8427 10.7865 10.8107 10.7963 10.7784 10.794C10.7461 10.7918 10.7158 10.7777 10.6932 10.7544L8.47657 7.72105C8.4514 7.69323 8.42367 7.66784 8.39373 7.64522C8.46267 7.49107 8.48552 7.32026 8.45954 7.15341C8.43356 6.98655 8.35985 6.83078 8.24732 6.70489L5.62231 3.78822C5.53133 3.68715 5.41804 3.60868 5.29143 3.55904C5.16483 3.5094 5.0284 3.48995 4.89296 3.50224C4.75753 3.51452 4.62682 3.55821 4.51122 3.62982C4.39562 3.70144 4.2983 3.79901 4.22698 3.9148C1.70932 8.0063 1.7274 8.01797 1.68307 8.12472C1.6399 8.23026 1.61771 8.3432 1.61773 8.45722V10.0322C1.61729 10.1846 1.57708 10.3342 1.50107 10.4662L0.245732 12.6911C0.1887 12.7908 0.151879 12.9009 0.137372 13.0149C0.122864 13.1289 0.130954 13.2446 0.16118 13.3555C0.191405 13.4664 0.243174 13.5702 0.313531 13.6611C0.383888 13.752 0.471455 13.8281 0.571232 13.8851C0.67101 13.9422 0.781043 13.979 0.895051 13.9935C1.00906 14.008 1.12481 13.9999 1.23569 13.9697C1.34657 13.9395 1.45041 13.8877 1.54128 13.8173C1.63216 13.747 1.70828 13.6594 1.76532 13.5596L3.02415 11.3377C3.25092 10.9404 3.37015 10.4908 3.37007 10.0334V9.76914L4.15698 10.097C4.36036 10.1828 4.52403 10.3419 4.61546 10.5428C4.70689 10.7437 4.71939 10.9717 4.65048 11.1814L3.8974 12.8334C3.85778 12.9432 3.84051 13.0598 3.84663 13.1763C3.85274 13.2928 3.88211 13.407 3.933 13.512C3.98389 13.617 4.05528 13.7108 4.14296 13.7878C4.23064 13.8649 4.33284 13.9236 4.44355 13.9605C4.55426 13.9974 4.67124 14.0118 4.7876 14.0029C4.90396 13.9939 5.01735 13.9618 5.12111 13.9083C5.22486 13.8549 5.31687 13.7812 5.39172 13.6917C5.46658 13.6022 5.52277 13.4985 5.55698 13.387L6.31065 11.7367C6.51777 11.1077 6.48045 10.4238 6.20611 9.82104C5.93176 9.2183 5.44052 8.74097 4.83015 8.48405L3.93298 8.10839C3.91356 8.10039 3.8961 8.08829 3.88179 8.07291C3.86748 8.05754 3.85666 8.03926 3.85007 8.01932C3.84348 7.99938 3.84127 7.97825 3.8436 7.95738C3.84593 7.93651 3.85274 7.91638 3.86357 7.89839L5.00515 5.99964C5.01678 5.97998 5.03289 5.96335 5.05216 5.95109C5.07142 5.93883 5.09331 5.93128 5.11604 5.92907C5.13877 5.92685 5.16171 5.93002 5.18298 5.93833C5.20426 5.94664 5.22327 5.95985 5.23848 5.97689L6.94882 7.87797C7.07854 8.01612 7.25049 8.10722 7.43765 8.13697C7.44589 8.23552 7.48011 8.33012 7.53682 8.41114L9.76398 11.4573C9.89797 11.6303 10.0735 11.7666 10.2742 11.8537C10.4749 11.9407 10.6944 11.9756 10.9123 11.9552C11.1301 11.9348 11.3393 11.8597 11.5203 11.7368C11.7014 11.614 11.8485 11.4474 11.948 11.2526Z" fill="white"/>
<path d="M13.87 12.9798C13.87 12.8251 13.8085 12.6767 13.6991 12.5673C13.5897 12.4579 13.4413 12.3965 13.2866 12.3965H11.245C11.0902 12.3965 10.9419 12.4579 10.8325 12.5673C10.7231 12.6767 10.6616 12.8251 10.6616 12.9798C10.6616 13.1345 10.7231 13.2829 10.8325 13.3923C10.9419 13.5017 11.0902 13.5632 11.245 13.5632H13.2866C13.4413 13.5632 13.5897 13.5017 13.6991 13.3923C13.8085 13.2829 13.87 13.1345 13.87 12.9798Z" fill="white"/>
</g>
</svg>
