<svg width="24" height="23" viewBox="0 0 24 23" fill="none" xmlns="http://www.w3.org/2000/svg">
<path fill-rule="evenodd" clip-rule="evenodd" d="M17.3333 0H6.66667C2.98477 0 0 2.85918 0 6.38615V16.604C0 20.131 2.98477 22.9901 6.66667 22.9901H17.3333C21.0152 22.9901 24 20.131 24 16.604V6.38615C24 2.85918 21.0152 0 17.3333 0ZM21.6666 16.6047C21.6593 18.8943 19.7235 20.7487 17.3333 20.7557H6.66659C4.27639 20.7487 2.34057 18.8943 2.33325 16.6047V6.38689C2.34057 4.09727 4.27639 2.24291 6.66659 2.23589H17.3333C19.7235 2.24291 21.6593 4.09727 21.6666 6.38689V16.6047ZM18.3333 6.70549C19.0697 6.70549 19.6666 6.13365 19.6666 5.42826C19.6666 4.72287 19.0697 4.15103 18.3333 4.15103C17.5969 4.15103 17 4.72287 17 5.42826C17 6.13365 17.5969 6.70549 18.3333 6.70549ZM12 5.74773C8.68629 5.74773 6 8.32098 6 11.4953C6 14.6695 8.68629 17.2428 12 17.2428C15.3137 17.2428 18 14.6695 18 11.4953C18.0035 9.96988 17.3725 8.50599 16.2465 7.42738C15.1206 6.34877 13.5924 5.74432 12 5.74773ZM8.33325 11.495C8.33325 13.4349 9.97488 15.0074 11.9999 15.0074C14.025 15.0074 15.6666 13.4349 15.6666 11.495C15.6666 9.55521 14.025 7.98267 11.9999 7.98267C9.97488 7.98267 8.33325 9.55521 8.33325 11.495Z" fill="white"/>
</svg>
